<svg id="Layer_1" data-name="Layer 1" xmlns="http://www.w3.org/2000/svg" viewBox="0 0 48 48.28">
  <defs>
    <style>
      .cls-1 {
        fill: #7ac943;
      }
    </style>
  </defs>
  <title>accepted-ok</title>
  <path id="Combined-Shape" class="cls-1" d="M19.86,27.56l-5.48-5.48a2,2,0,0,0-2.82,0l-3,3a2,2,0,0,0,0,2.82l9.89,9.89a2,2,0,0,0,2.85,0L39.63,19.45a2,2,0,0,0,0-2.83l-3-3a2,2,0,0,0-2.83,0ZM24,.08A24.14,24.14,0,1,1,0,24.22,24.07,24.07,0,0,1,24,.08Z" transform="translate(0 -0.08)"/>
</svg>
