<svg id="aggregates" xmlns="http://www.w3.org/2000/svg" viewBox="0 0 40 32">
  <title>aggregates</title>
  <path d="M35.46,22A3.48,3.48,0,0,0,36,20.11c0-2-1.84-3.74-4.56-4.53A2.81,2.81,0,0,0,32,13.93a3.5,3.5,0,0,0-2.12-3,9,9,0,0,0-3.73-1V9.86A3.37,3.37,0,0,0,28,7.08a3.5,3.5,0,0,0-2.12-3,7.84,7.84,0,0,0-1.94-.72h0C23.51,1.45,21.06,0,18,0c-3.35,0-6,1.73-6,3.93a3.43,3.43,0,0,0,1.8,2.82c-2.14.89-3.53,2.41-3.53,4.17a3.32,3.32,0,0,0,0,.42,8,8,0,0,0-2.14.76A3.5,3.5,0,0,0,6,15.1a2.94,2.94,0,0,0,.88,2C5.12,18,4,19.43,4,21a3.41,3.41,0,0,0,.37,1.53C1.76,23.35,0,25,0,27c0,2.8,3.51,5,8,5a10.52,10.52,0,0,0,6-1.7,16.21,16.21,0,0,0,5.15.8,16.16,16.16,0,0,0,5.22-.82A12.51,12.51,0,0,0,31,32c5,0,9-2.35,9-5.35C40,24.59,38.19,22.86,35.46,22ZM34,20.11c0,1.31-2.09,2.75-5.18,3-1.06-1.79-3.5-3.17-6.6-3.71.67-1.18,2.86-2.26,5.79-2.26C31.54,17.11,34,18.69,34,20.11Zm-14.58-1a7.43,7.43,0,0,0-4.84-2.84,3.16,3.16,0,0,1,.68-.48l.32-.16a12.74,12.74,0,0,0,2.7.28,12.52,12.52,0,0,0,3.17-.39,3.79,3.79,0,0,1,1.3.79,5.06,5.06,0,0,0-2.6,2.82ZM30,13.93c0,.4-.4.85-1.07,1.22H28a12.43,12.43,0,0,0-3.32.44,3.84,3.84,0,0,0-.89-1A5,5,0,0,0,26.1,12C28.49,12.13,30,13.18,30,13.93ZM26,7.08c0,.37-.34.78-.92,1.13h0a9.75,9.75,0,0,0-6.77-2.3H18l.11-.06A7.35,7.35,0,0,1,21.5,5.1C24.23,5.11,26,6.28,26,7.08ZM18,1.92a5.6,5.6,0,0,1,3.67,1.2H21.5a9.26,9.26,0,0,0-4.34,1,4.51,4.51,0,0,0-1.62,1.4h0c-.93-.36-1.61-.92-1.61-1.56C13.94,2.78,16.08,1.92,18,1.92Zm.28,6c3.54,0,6,1.58,6,3s-2.46,3-6,3-6-1.58-6-3,2.46-3,6-3ZM8,15.08c0-.4.4-.86,1.08-1.22a6.38,6.38,0,0,1,2-.64,6.28,6.28,0,0,0,2.07,1.6,3.36,3.36,0,0,0-.84,1.2H12a12.67,12.67,0,0,0-2.84.31C8.44,15.94,8,15.47,8,15.08ZM12,18a8.67,8.67,0,0,1,4.8,1.26c-3.74.51-6.63,2.2-7.52,4.4C7.27,23.13,6,22,6,21,6,19.59,8.46,18,12,18ZM8,30c-3.54,0-6-1.58-6-3,0-1.11,1.5-2.31,3.83-2.79A8.78,8.78,0,0,0,9,25.67a5.38,5.38,0,0,0,2.77,3.62A9.7,9.7,0,0,1,8,30Zm5.17-2.24C11.79,27,11,26,11,25.11s.79-1.91,2.17-2.66a12.88,12.88,0,0,1,6-1.34,12.88,12.88,0,0,1,6,1.34c1.38.75,2.17,1.72,2.17,2.66S26.6,27,25.22,27.77a12.88,12.88,0,0,1-6,1.34,12.88,12.88,0,0,1-6-1.34ZM31,30a11.9,11.9,0,0,1-4.3-.74,5,5,0,0,0,2.7-4.11v-.07a10,10,0,0,0,4.44-1.47c2.55.57,4.16,1.86,4.16,3C38,28.2,35.12,30,31,30Z"/>
</svg>
