<svg id="bag-cement" xmlns="http://www.w3.org/2000/svg" viewBox="0 0 40 39.91">
  <title>bag-cement</title>
  <path d="M38.18,0H11A1.82,1.82,0,0,0,9.16,1.8V3.62H1.82A1.82,1.82,0,0,0,0,5.44H0V38.09a1.82,1.82,0,0,0,1.82,1.82H29a1.82,1.82,0,0,0,1.82-1.82v-1.8h7.34A1.82,1.82,0,0,0,40,34.49s0,0,0,0V1.82A1.82,1.82,0,0,0,38.18,0ZM28.83,37.9H2V5.63H28.83Zm2-26h3.53V24.27H30.84ZM38,34.28H30.84V30.83h3.74V29H30.84V26.28h3.79a1.74,1.74,0,0,0,1.74-1.74h0V11.7A1.74,1.74,0,0,0,34.63,10H30.84V5.45A1.82,1.82,0,0,0,29,3.63H11.17V2H38Z" transform="translate(0 0)"/>
  <rect x="5.38" y="32.65" width="12.79" height="1.81"/>
  <rect x="19.95" y="32.65" width="5.47" height="1.81"/>
  <rect x="14.55" y="9.07" width="9" height="1.81"/>
  <polygon points="10.87 7.26 9.1 7.26 7.29 10.84 9.06 10.84 10.87 7.26"/>
  <polygon points="11.78 10.84 13.6 7.26 11.82 7.26 10.01 10.84 11.78 10.84"/>
  <path d="M5.37,29.91h6.14a9.07,9.07,0,0,0,7.81,0h6.14a1.74,1.74,0,0,0,1.74-1.74V15.32a1.74,1.74,0,0,0-1.74-1.74H19.33a9.07,9.07,0,0,0-7.81,0H5.37a1.74,1.74,0,0,0-1.74,1.74V28.16a1.74,1.74,0,0,0,1.73,1.75Zm.26-14.32H12l.41-.2a7.06,7.06,0,0,1,6.08,0l.41.2h6.34V27.9H18.87l-.41.2a7.06,7.06,0,0,1-6.08,0L12,27.9H5.63Z" transform="translate(0 0)"/>
</svg>
