<svg id="bulk-cement" xmlns="http://www.w3.org/2000/svg" viewBox="0 0 48 40.17">
  <title>bulk-cement</title>
  <g>
    <path d="M47.81,38.33,33,15.15a5.9,5.9,0,0,0-5.14-2.73l-4-8.89a5.94,5.94,0,0,0-10.95.22L.08,36.15a1.19,1.19,0,0,0,1.11,1.63H10l-.34.6a1.19,1.19,0,0,0,1,1.78H46.81a1.19,1.19,0,0,0,1-1.84ZM6.46,35.4A1.21,1.21,0,0,0,7.52,34.2a1.22,1.22,0,1,0-2.45,0A1.21,1.21,0,0,0,6.14,35.4H2.95L15.14,4.63a3.55,3.55,0,0,1,6.55-.14L25.46,13a5.91,5.91,0,0,0-2.66,2.44l-3.56,6.24a1.21,1.21,0,0,0-1-.59,1.22,1.22,0,0,0,0,2.44l-2.73,4.79a1.21,1.21,0,0,0-.84,1.15,1.17,1.17,0,0,0,0,.24L14,30.77a1.19,1.19,0,0,0-.59-.17,1.23,1.23,0,0,0-1.22,1.23,1.21,1.21,0,0,0,.62,1l-.61,1.07A1.21,1.21,0,0,0,11.07,33,1.23,1.23,0,0,0,9.84,34.2a1.21,1.21,0,0,0,1.07,1.19Zm4.77,0,.2,0,0,0Zm31,2.38a1.21,1.21,0,0,0,1.06-1.19,1.22,1.22,0,1,0-2.45,0,1.21,1.21,0,0,0,1.06,1.19H37.46a1.21,1.21,0,0,0,1.06-1.19,1.22,1.22,0,1,0-2.45,0,1.21,1.21,0,0,0,1.06,1.19H32.69a1.21,1.21,0,0,0,1.06-1.19,1.22,1.22,0,1,0-2.45,0,1.21,1.21,0,0,0,1.06,1.19H12.78l1.36-2.38,10.73-18.8a3.57,3.57,0,0,1,3-1.79,3.6,3.6,0,0,1,1.08.14,3.52,3.52,0,0,1,2,1.49l7.82,12.2a1.21,1.21,0,0,0-.31.8,1.23,1.23,0,0,0,1.22,1.22,1.19,1.19,0,0,0,.34-.07l4.61,7.19Z" transform="translate(0 0)"/>
    <circle cx="11.07" cy="29.44" r="1.22"/>
    <circle cx="13.45" cy="27.05" r="1.22"/>
    <circle cx="15.84" cy="24.67" r="1.22"/>
    <circle cx="37.3" cy="31.82" r="1.22"/>
    <circle cx="8.68" cy="31.82" r="1.22"/>
    <circle cx="39.69" cy="34.2" r="1.22"/>
    <circle cx="34.92" cy="34.2" r="1.22"/>
  </g>
</svg>
