<svg id="Layer_1" data-name="Layer 1" xmlns="http://www.w3.org/2000/svg" viewBox="0 0 14 14">
  <defs>
    <style>
      .cls-1 {
        fill: #139df2;
      }
    </style>
  </defs>
  <title>clock-icon</title>
  <path id="Fill-1" class="cls-1" d="M1.28,7A5.72,5.72,0,1,0,7,1.28,5.72,5.72,0,0,0,1.28,7M6.79,0h.42l.15,0A6.45,6.45,0,0,1,9.66.54a6.89,6.89,0,0,1,4.22,5.25c.07.34.08.69.12,1v.36c0,.31,0,.62-.1.93A6.86,6.86,0,0,1,12,11.89a6.84,6.84,0,0,1-4,2c-.27,0-.54.06-.81.09H6.82l-.13,0a6.45,6.45,0,0,1-2.35-.52A6.89,6.89,0,0,1,.12,8.21C.06,7.88,0,7.54,0,7.21V6.79c0-.05,0-.11,0-.16a6.85,6.85,0,0,1,2-4.5,6.81,6.81,0,0,1,4-2L6.79,0" transform="translate(0 0)"/>
  <path id="Fill-4" class="cls-1" d="M7.63,4.89c0,.57,0,1.14,0,1.71a.35.35,0,0,0,.09.22l1.5,1.51A.61.61,0,0,1,9.39,9a.63.63,0,0,1-1,.23l-1.8-1.8A.61.61,0,0,1,6.37,7c0-1.28,0-2.55,0-3.83a.63.63,0,0,1,1.26,0c0,.57,0,1.14,0,1.71Z" transform="translate(0 0)"/>
</svg>
