<svg id="Layer_1" data-name="Layer 1" xmlns="http://www.w3.org/2000/svg" viewBox="0 0 16 16">
  <defs>
    <style>
      .cls-1 {
        fill: #b0b0b0;
      }
    </style>
  </defs>
  <title>collapse</title>
  <g>
    <path class="cls-1" d="M14.5,0H1.5A1.5,1.5,0,0,0,0,1.5v13A1.5,1.5,0,0,0,1.5,16h13A1.5,1.5,0,0,0,16,14.5V1.5A1.5,1.5,0,0,0,14.5,0ZM15,14.5a.5.5,0,0,1-.5.5H1.5a.5.5,0,0,1-.5-.5V1.5A.5.5,0,0,1,1.5,1h13a.5.5,0,0,1,.5.5Z"/>
    <path class="cls-1" d="M12.49,7.5h-9a.49.49,0,1,0,0,1h9a.49.49,0,1,0,0-1Z"/>
  </g>
</svg>
