<svg id="Layer_1" data-name="Layer 1" xmlns="http://www.w3.org/2000/svg" viewBox="0 0 13 13">
  <title>contract-icon</title>
  <path id="contract-icon" d="M6.54,13a.39.39,0,0,0,.35-.4V10L8,11.11a.39.39,0,1,0,.55-.56L6.78,8.77a.39.39,0,0,0-.55,0L4.45,10.55a.39.39,0,1,0,.54.57H5L6.11,10V12.6a.39.39,0,0,0,.39.4h.05m4.31-4.33A.39.39,0,0,0,11.09,8L10,6.89h2.63a.39.39,0,0,0,0-.79H10L11.09,5a.39.39,0,0,0-.54-.57h0L8.76,6.22a.39.39,0,0,0,0,.56h0l1.77,1.77a.39.39,0,0,0,.32.12m-8.64,0a.39.39,0,0,0,.23-.12L4.22,6.78a.39.39,0,0,0,0-.56h0L2.45,4.45A.39.39,0,0,0,1.88,5h0L3,6.1H.4a.39.39,0,1,0,0,.79H3L1.9,8a.39.39,0,0,0,.33.68M6.54,4.34a.39.39,0,0,0,.23-.11L8.55,2.46A.39.39,0,0,0,8,1.88H8L6.89,3V.4a.39.39,0,1,0-.79,0h0V3L5,1.9a.39.39,0,0,0-.57.55h0L6.22,4.23a.39.39,0,0,0,.32.11" transform="translate(0 0)"/>
</svg>
