<svg id="document" xmlns="http://www.w3.org/2000/svg" viewBox="0 0 15.84 21.89">
  <title>document</title>
  <path d="M13.72,18.06a.35.35,0,0,0-.27,0l-.72.18-.89-2a.35.35,0,0,0-.3-.21h0a.35.35,0,0,0-.31.18l-.89,1.6-.74-2a.35.35,0,0,0-.4-.23.36.36,0,0,0-.26.21L7.73,18.57l-.83.21a.35.35,0,0,0-.09.65.36.36,0,0,0,.18,0h.09l1-.25A.35.35,0,0,0,8.32,19l.91-2.19.7,1.93a.36.36,0,0,0,.31.23h0a.36.36,0,0,0,.31-.18l.92-1.65.72,1.63a.35.35,0,0,0,.41.2l1-.25a.35.35,0,0,0,.22-.16.35.35,0,0,0-.13-.49Z" transform="translate(-0.58 -0.11)"/>
  <path d="M3.2,4.34h7.06a.35.35,0,0,0,0-.7H3.2a.35.35,0,0,0,0,.7Z" transform="translate(-0.58 -0.11)"/>
  <path d="M2.85,7a.35.35,0,0,0,.35.35H13.8a.35.35,0,1,0,0-.7H3.2A.35.35,0,0,0,2.85,7Z" transform="translate(-0.58 -0.11)"/>
  <path d="M13.8,12.72H3.2a.35.35,0,1,0,0,.7H13.8a.35.35,0,1,0,0-.7Z" transform="translate(-0.58 -0.11)"/>
  <path d="M16.32,3.74,12.79.21a.35.35,0,0,0-.24-.1H.87A.35.35,0,0,0,.58.46V21.64A.35.35,0,0,0,.93,22H16.07a.35.35,0,0,0,.35-.35V4A.35.35,0,0,0,16.32,3.74Zm-3.43-.1V1.31l2.33,2.33Zm-.35.7h3.18V21.29H1.29V.81h10.9V4A.35.35,0,0,0,12.54,4.34Z" transform="translate(-0.58 -0.11)"/>
  <path d="M13.8,9.69H3.2a.35.35,0,0,0,0,.7H13.8a.35.35,0,1,0,0-.7Z" transform="translate(-0.58 -0.11)"/>
</svg>
