<svg id="Layer_1" data-name="Layer 1" xmlns="http://www.w3.org/2000/svg" viewBox="0 0 16 16">
  <defs>
    <style>
      .cls-1 {
        fill: #b0b0b0;
      }
    </style>
  </defs>
  <title>expand</title>
  <path class="cls-1" d="M14.5,16H1.5A1.5,1.5,0,0,1,0,14.5V1.5A1.5,1.5,0,0,1,1.5,0h13A1.5,1.5,0,0,1,16,1.5v13A1.5,1.5,0,0,1,14.5,16ZM1.5,1a.5.5,0,0,0-.5.5v13a.5.5,0,0,0,.5.5h13a.5.5,0,0,0,.5-.5V1.5a.5.5,0,0,0-.5-.5Z"/>
  <path class="cls-1" d="M8.49,8.49h4a.49.49,0,1,0,0-1h-4v-4a.49.49,0,1,0-1,0v4h-4a.49.49,0,1,0,0,1h4v4a.49.49,0,1,0,1,0Z"/>
</svg>
