<svg id="Layer_1" data-name="Layer 1" xmlns="http://www.w3.org/2000/svg" viewBox="0 0 13 13">
  <title>expand-move</title>
  <path id="icon-expand-move" d="M6.46,8.66a.39.39,0,0,0-.35.4v2.59L5,10.55a.39.39,0,1,0-.55.56l1.77,1.77a.39.39,0,0,0,.55,0l1.77-1.77A.39.39,0,0,0,8,10.54H8l-1.1,1.1V9.06a.39.39,0,0,0-.39-.4H6.46m4.33-4.33a.39.39,0,0,0-.23.68l1.1,1.1H9a.39.39,0,0,0,0,.79h2.6L10.56,8a.39.39,0,0,0,.54.57h0l1.77-1.77a.39.39,0,0,0,0-.56h0L11.11,4.45a.39.39,0,0,0-.32-.12m-8.67,0a.4.4,0,0,0-.23.12L.12,6.22a.39.39,0,0,0,0,.56h0L1.89,8.55A.39.39,0,0,0,2.45,8h0L1.34,6.9h2.6a.39.39,0,0,0,0-.79H1.34L2.44,5a.39.39,0,0,0-.33-.68M6.46,0a.4.4,0,0,0-.23.11L4.45,1.89A.39.39,0,0,0,5,2.46H5l1.1-1.1v2.6a.39.39,0,1,0,.79,0h0V1.34L8,2.45a.39.39,0,0,0,.57-.55h0L6.78.11A.39.39,0,0,0,6.46,0" transform="translate(0 0)"/>
</svg>
