<svg id="Layer_1" data-name="Layer 1" xmlns="http://www.w3.org/2000/svg" viewBox="0 0 20.95 20">
  <defs>
    <style>
      .cls-1 {
        fill: #979797;
      }
    </style>
  </defs>
  <title>favourite</title>
  <path class="cls-1" d="M17.12,20.5h-.86l-.08-.17-1.26-.72L11,17.37,7,19.62l-1,.56-.53.31H4.83l-.13-.09A1.17,1.17,0,0,1,4.15,19l1.19-5.71L2.85,11,.92,9.27A1.12,1.12,0,0,1,.54,8.1a1.08,1.08,0,0,1,1-.8l3.21-.36,2.75-.3L9.91,1.29a1.12,1.12,0,0,1,2.15,0L13,3.4l1.46,3.25,5.77.62a1.4,1.4,0,0,1,1,.46,1,1,0,0,1,.2.76,1.32,1.32,0,0,1-.41.78q-2.19,2-4.42,4l.44,2.1c.25,1.21.5,2.42.76,3.63a1.24,1.24,0,0,1-.59,1.43Zm-.37-1h.07c0-.05.06-.13,0-.29-.26-1.21-.51-2.42-.76-3.63l-.44-2.12a.91.91,0,0,1,.31-.93q2.21-2,4.41-4a.33.33,0,0,0,.09-.16s0-.07-.31-.1l-5.78-.63a.92.92,0,0,1-.79-.58L12.1,3.82l-1-2.11C11,1.49,11,1.5,11,1.5s-.07,0-.16.2L8.4,7.06a.88.88,0,0,1-.74.57l-2.82.3-3.21.36c-.11,0-.12,0-.13.07s0,.07.09.17l1.93,1.75L6,12.55a.86.86,0,0,1,.29.88l-1.2,5.75a.79.79,0,0,0,0,.26h0l.06.06h.09l.29-.17,1-.57,4-2.28a.82.82,0,0,1,.88,0l4,2.29Z" transform="translate(-0.5 -0.5)"/>
</svg>
