<svg id="Layer_1" data-name="Layer 1" xmlns="http://www.w3.org/2000/svg" viewBox="0 0 20.95 20">
  <defs>
    <style>
      .cls-1 {
        fill: #ffba53;
      }
    </style>
  </defs>
  <title>favourite-active</title>
  <path class="cls-1" d="M21.25,7.73a1.4,1.4,0,0,0-1-.46l-5.77-.62L13,3.34l-.93-2a1.12,1.12,0,0,0-2.15,0L7.49,6.65l-2.75.3L1.52,7.3a1.08,1.08,0,0,0-1,.8A1.13,1.13,0,0,0,.92,9.27L2.85,11l2.48,2.25L4.15,19a1.17,1.17,0,0,0,.56,1.43l.13.09h.69L6,20.19l1-.56,4-2.26,3.93,2.24,1.26.72.08.17h.86l.12-.07A1.23,1.23,0,0,0,17.83,19c-.26-1.21-.51-2.42-.76-3.63l-.44-2.1q2.22-2,4.42-4a1.32,1.32,0,0,0,.41-.78A1,1,0,0,0,21.25,7.73Z" transform="translate(-0.5 -0.5)"/>
</svg>
