<svg id="Layer_1" data-name="Layer 1" xmlns="http://www.w3.org/2000/svg" viewBox="0 0 19.65 19.7">
  <title>icon-payment</title>
  <path id="icon-payment" d="M0,16.49,3.28,15l6.48,3.58,8.42-4.67-.52-.72L12.9,15.76H8.52v-1h3.66v-.93H8.24L4.63,11.93,0,14.54V13.39l4.61-2.6,3.88,2.05h4.69v1.64L18,11.87l1.7,2.34L9.76,19.7,3.24,16.1,0,17.59ZM7.71,4.2,5.63,6.28l4.86,4.86,2.08-2.08-.66-.66L10.5,9.82l-.71-.71,2.83-2.83-.71-.71L9.08,8.4,7,6.28,8.38,4.87Zm.7-.7.67.67,1.4-1.4.71.71L8.37,6.29,9.07,7,11.9,4.17l2,2h0L14,6.3l-1.4,1.4.66.66,2.09-2.09L10.49,1.41ZM4.21,6.28,10.49,0l6.28,6.28-6.28,6.28Z"/>
</svg>
