<svg id="Layer_1" data-name="Layer 1" xmlns="http://www.w3.org/2000/svg" viewBox="0 0 20 17.3">
  <title>icon-driver</title>
  <path id="Combined-Shape" d="M15.08,10.1,9.5,4.52,7.62,8.29,11.31,12ZM10.36,4l5.28,5.28,2.69-4.38-3.6-3.6Zm-.14,8.34L6.4,8.49,8.76,3.77,14.89,0,19.6,4.71l-3.77,6.13L12.91,12.3H20v1H6v-1ZM1,14.3H20v1H0v-4H1ZM0,9.24,2.37,4.3H6v7H0ZM3,5.3,1,9.47v.83H5v-5Zm-2,10H5a2,2,0,0,1-4,0Zm3,0H2a1,1,0,0,0,2,0Zm4,0h4a2,2,0,0,1-4,0Zm3,0H9a1,1,0,0,0,2,0Zm4,0h4a2,2,0,1,1-4,0Zm3,0H16a1,1,0,1,0,2,0Z"/>
</svg>
