<svg id="Layer_1" data-name="Layer 1" xmlns="http://www.w3.org/2000/svg" viewBox="0 0 20 20">
  <title>icon-pricing</title>
  <path id="icon-pricing" d="M16.26,13.43l1.52,1.52-.71.71-2.22-2.22L18.59,9.7,13.94,5.05,6.06,12.93,3.43,10.3l7.88-7.88-1-1L6.57,5.15,4.34,2.93l.71-.71L6.57,3.74,10.3,0l2.42,2.42L4.85,10.3l1.21,1.21,7.88-7.88L20,9.7l-3.74,3.74Zm-2.83,2.83L9.7,20,7.27,17.58,15.15,9.7,13.94,8.48,6.06,16.36,0,10.3,3.74,6.57,2.22,5.05l.71-.71L5.15,6.57,1.41,10.3l4.65,4.65,7.88-7.88L16.57,9.7,8.69,17.58l1,1,3.74-3.74,2.22,2.22-.71.71Z"/>
</svg>
