<svg id="Layer_1" data-name="Layer 1" xmlns="http://www.w3.org/2000/svg" viewBox="0 0 19.8 19.8">
  <title>icon-scheduler</title>
  <path id="icon-scheduler" d="M2.83,11.31,12,2.12,19.8,9.9,9.9,19.8,0,9.9,2.12,7.78l-.71-.71.71-.71.71.71L7.07,2.83l-.71-.71.71-.71.71.71L9.9,0l.71.71L8.49,2.83l.71.71-.71.71-.71-.71L3.54,7.78l.71.71-.71.71-.71-.71L1.41,9.9ZM12,3.54,3.54,12,9.9,18.38,18.38,9.9,12,3.54ZM5.66,12.72l2.65-2.65.71.71L6.37,13.43Zm3.62-.79,2.65-2.65.71.71L10,12.64Zm3.62-.79,2.65-2.65.71.71-2.65,2.65Z"/>
</svg>
