<svg id="Layer_1" data-name="Layer 1" xmlns="http://www.w3.org/2000/svg" viewBox="0 0 15.94 15.94">
  <defs>
    <style>
      .cls-1 {
        fill: #3fa9f5;
      }
    </style>
  </defs>
  <title>invoicing-icon</title>
  <path class="cls-1" d="M14.51,8.47l1.91-7.34a.5.5,0,0,0-.61-.61L8.47,2.43,1.13.52a.5.5,0,0,0-.61.61L2.43,8.47.52,15.81a.5.5,0,0,0,.48.63l.13,0,7.34-1.91,7.34,1.91.13,0a.5.5,0,0,0,.48-.63Zm.73-6.77L14,6.48,13.34,4A.5.5,0,0,0,13,3.6l-2.52-.66ZM13.48,8.47l-1,4-4,1-4-1-1-4,1-4,4-1,4,1ZM1.7,1.7,6.48,2.94,4,3.6A.5.5,0,0,0,3.6,4L2.94,6.48Zm0,13.54,1.24-4.78L3.6,13a.5.5,0,0,0,.36.36L6.48,14ZM10.46,14,13,13.34a.5.5,0,0,0,.36-.36L14,10.45l1.24,4.78Z" transform="translate(-0.5 -0.5)"/>
</svg>
