<svg id="logout" xmlns="http://www.w3.org/2000/svg" viewBox="0 0 17.76 20">
  <title>logout</title>
  <path id="logout-2" data-name="logout" d="M7.76,0h9.52a.49.49,0,0,1,.48.48v19a.49.49,0,0,1-.48.48H7.76a.49.49,0,0,1-.48-.48V16.2a.48.48,0,1,1,1,0V19h8.57V1H8.24V3.8a.48.48,0,1,1-1,0V.48A.51.51,0,0,1,7.76,0ZM0,9.73A.56.56,0,0,1,.13,9.4l3.81-4a.48.48,0,0,1,.67,0,.49.49,0,0,1,0,.67L1.58,9.25H14.29a.48.48,0,0,1,0,1H1.58l3.06,3.24a.5.5,0,0,1,0,.67.48.48,0,0,1-.67,0l-3.81-4A.42.42,0,0,1,0,9.73Z"/>
</svg>
