<svg id="Layer_1" data-name="Layer 1" xmlns="http://www.w3.org/2000/svg" viewBox="0 0 49.26 49.38">
  <title>multi-products</title>
  <g>
    <circle cx="24.03" cy="24.16" r="1.26"/>
    <circle cx="28.66" cy="19.53" r="1.26"/>
    <circle cx="19.41" cy="28.78" r="1.26"/>
    <circle cx="10.16" cy="38.03" r="1.26"/>
    <circle cx="14.78" cy="33.41" r="1.26"/>
    <circle cx="33.28" cy="14.91" r="1.26"/>
    <circle cx="37.91" cy="10.28" r="1.26"/>
    <circle cx="40.55" cy="43.1" r="1.26"/>
    <path d="M47.9,8.54a1.26,1.26,0,0,0-1.17-.78h-2L40.43,3.45v-2A1.26,1.26,0,0,0,38.28.56L.44,38.4a1.26,1.26,0,0,0,.89,2.15h2l4.31,4.31v2A1.26,1.26,0,0,0,8.41,48a1.26,1.26,0,0,0,1.38-.27L47.63,9.91A1.26,1.26,0,0,0,47.9,8.54ZM10.08,43.9a1.28,1.28,0,0,0-.29-.45l-5-5a1.27,1.27,0,0,0-.45-.29L38,4.42a1.25,1.25,0,0,0,.29.45l5,5a1.26,1.26,0,0,0,.45.29Z" transform="translate(0)"/>
    <path d="M48,39.33a1.26,1.26,0,0,0,1.26-1.26V36.83H31.6v1.25a1.26,1.26,0,0,0,1.26,1.26,1.26,1.26,0,0,1,1.26,1.26v5a1.26,1.26,0,0,1-1.26,1.26,1.26,1.26,0,0,0-1.26,1.26v1.26H49.26V48.12A1.26,1.26,0,0,0,48,46.86a1.26,1.26,0,0,1-1.26-1.26v-5A1.26,1.26,0,0,1,48,39.33Zm-3.78,7.53H36.65s0-7.54,0-7.57h7.57S44.22,46.84,44.22,46.86Z" transform="translate(0)"/>
    <path d="M1.26,22.83a1.26,1.26,0,0,0,.89-.37L22.46,2.15A1.26,1.26,0,0,0,20.67.37L.37,20.67a1.26,1.26,0,0,0,.89,2.15Z" transform="translate(0)"/>
    <path d="M1.33,30.33A1.26,1.26,0,0,0,2.22,30L30,2.35A1.26,1.26,0,1,0,28.19.56L.44,28.17a1.26,1.26,0,0,0,.89,2.16Z" transform="translate(0)"/>
  </g>
</svg>
