<svg id="picture" xmlns="http://www.w3.org/2000/svg" viewBox="0 0 39 31">
  <title>picture</title>
  <path d="M10.75,12.75a3.58,3.58,0,1,1,3.58-3.58A3.59,3.59,0,0,1,10.75,12.75Zm0-5.71a2.12,2.12,0,1,0,2.12,2.12A2.13,2.13,0,0,0,10.75,7Z"/>
  <path d="M37.49,31h-36A1.51,1.51,0,0,1,0,29.48v-28A1.51,1.51,0,0,1,1.51,0h36A1.51,1.51,0,0,1,39,1.52v28A1.51,1.51,0,0,1,37.49,31ZM2.47,1.79A.48.48,0,0,0,2,2.27V28.73a.48.48,0,0,0,.48.48H36.53a.48.48,0,0,0,.48-.48V2.27a.48.48,0,0,0-.48-.48Z"/>
  <path d="M35,19.95,26.2,12a1,1,0,0,0-1.38,0,.94.94,0,0,0-.11.06l-5.4,5.78L16.2,15a1,1,0,0,0-1.38,0,.94.94,0,0,0-.11.06l-10.62,10A1,1,0,0,0,5.4,26.56l10.08-9.5,8.06,7.29A1,1,0,1,0,25,22.95l-4.19-3.79,4.74-5.07,8,7.26A1,1,0,0,0,35,19.95Z"/>
</svg>
