<svg id="Layer_1" data-name="Layer 1" xmlns="http://www.w3.org/2000/svg" viewBox="0 0 24 24">
  <defs>
    <style>
      .cls-1 {
        fill: #3fa9f5;
      }
    </style>
  </defs>
  <title>plus-icon</title>
  <path id="Page-1" class="cls-1" d="M12,0A12,12,0,1,0,24,12,12,12,0,0,0,12,0m0,22.9A10.9,10.9,0,1,1,22.91,12,10.92,10.92,0,0,1,12,22.9"/>
  <path class="cls-1" d="M16.16,11.33H12.32V7.49a.49.49,0,1,0-1,0v3.84H7.49a.49.49,0,1,0,0,1h3.84v3.84a.49.49,0,0,0,1,0V12.32h3.84a.49.49,0,1,0,0-1"/>
</svg>
