<svg id="Layer_1" data-name="Layer 1" xmlns="http://www.w3.org/2000/svg" viewBox="0 0 14.94 16.96">
  <defs>
    <style>
      .cls-1 {
        fill: #3fa9f5;
      }
    </style>
  </defs>
  <title>pricing-icon</title>
  <path class="cls-1" d="M15.42.89s0,0,0,0h0a.49.49,0,0,0-.16-.22l0,0A.49.49,0,0,0,14.94.5H1A.5.5,0,0,0,.5,1V17a.48.48,0,0,0,0,.11s0,0,0,0h0a.49.49,0,0,0,.16.22l0,0a.49.49,0,0,0,.27.09H14.94a.49.49,0,0,0,.22-.05h0l0,0a.49.49,0,0,0,.14-.14l0,0a.49.49,0,0,0,.07-.23V1A.48.48,0,0,0,15.42.89ZM14.44,16,8.85,12.18l5.59-3.83ZM1.5,16V10.82L14.44,1.95V7.14ZM1.5,1.5H13.33L1.5,9.61ZM8,12.79l5.36,3.67H2.61Z" transform="translate(-0.5 -0.5)"/>
</svg>
