<svg id="Layer_1" data-name="Layer 1" xmlns="http://www.w3.org/2000/svg" viewBox="0 0 25.34 46.47">
  <title>questionmark</title>
  <path id="questionmark" d="M9.16,34.13A18.64,18.64,0,0,1,10,28.27a15,15,0,0,1,3.19-4.77l4.09-4.21a9.44,9.44,0,0,0,2.63-6.36,7.26,7.26,0,0,0-1.72-5.13,6.48,6.48,0,0,0-5-1.86A7.52,7.52,0,0,0,8.06,7.63a5.7,5.7,0,0,0-1.94,4.53H.34A10.53,10.53,0,0,1,4,4,13.5,13.5,0,0,1,13.19.88q5.91,0,9.2,3.17t3.3,8.69q0,5.46-5.06,10.76l-3.41,3.37q-2.28,2.53-2.28,7.27Zm-.25,9.93a3.44,3.44,0,0,1,.86-2.38,3.23,3.23,0,0,1,2.55-1,3.29,3.29,0,0,1,2.56,1,3.41,3.41,0,0,1,.88,2.38,3.3,3.3,0,0,1-.87,2.35,3.35,3.35,0,0,1-2.56.93,3.3,3.3,0,0,1-2.55-.93A3.33,3.33,0,0,1,8.91,44.06Z" transform="translate(-0.34 -0.88)"/>
</svg>
