<?xml version="1.0" encoding="utf-8"?>
<!-- Generator: Adobe Illustrator 21.0.2, SVG Export Plug-In . SVG Version: 6.00 Build 0)  -->
<svg version="1.1" id="Layer_1" xmlns="http://www.w3.org/2000/svg" xmlns:xlink="http://www.w3.org/1999/xlink" x="0px" y="0px"
	 viewBox="0 0 512 512" style="enable-background:new 0 0 512 512;" xml:space="preserve">
<style type="text/css">
	.st0{fill-rule:evenodd;clip-rule:evenodd;}
</style>
<path class="st0" d="M476.2,61H206.5c-19.8,0-35.8,16.3-35.8,36.4V165h25.6V97.4c0-5.7,4.6-10.4,10.2-10.4h269.7
	c5.7,0,10.2,4.7,10.2,10.4v187.2c0,5.7-4.6,10.4-10.2,10.4H366.9v26h109.2c19.8,0,35.8-16.3,35.8-36.4V97.4
	C512,77.3,495.9,61,476.2,61"/>
<path class="st0" d="M315.7,414.6c0,5.7-4.6,10.4-10.2,10.4H35.8c-5.6,0-10.2-4.7-10.2-10.4V227.4c0-5.7,4.6-10.4,10.2-10.4h243.7
	l25.6-26H35.8C16.1,191,0,207.3,0,227.4v187.2C0,434.7,16.1,451,35.8,451h269.7c19.8,0,35.8-16.3,35.8-36.4V227.8l-25.6,26V414.6z"
	/>
<path class="st0" d="M388.1,157.3v46.1c0,5.4,4.3,9.8,9.6,9.8s9.6-4.4,9.6-9.8v-69.7c0-2.7-1.1-5.1-2.8-6.8c0,0,0,0,0-0.1h0
	c-1.8-1.8-4.1-2.9-6.8-2.9h-68.6c-5.3,0-9.6,4.4-9.6,9.8c0,5.4,4.3,9.8,9.6,9.8h45.4L265.1,254.6c-3.7,3.8-3.7,10,0,13.8
	c1.9,1.9,4.3,2.9,6.8,2.9c2.5,0,4.9-0.9,6.8-2.9L388.1,157.3z"/>
</svg>
