<svg id="ready-mix" xmlns="http://www.w3.org/2000/svg" viewBox="0 0 40 37.09">
  <title>ready-mix</title>
  <path d="M12,12.09H4l-4,9.7v10.3H4a5,5,0,0,0,10,0H26a5,5,0,0,0,10,0h4v-10H12ZM9,34.93a2.84,2.84,0,1,1,2.84-2.84A2.84,2.84,0,0,1,9,34.93Zm22,0a2.84,2.84,0,1,1,2.84-2.84A2.84,2.84,0,0,1,31,34.93Zm6.84-10.68v5.68H35.51a5,5,0,0,0-9,0h-13a5,5,0,0,0-9,0H2.16V28H3a1,1,0,0,0,.67-.24l.14-.14A1,1,0,0,0,4.05,27h0A1.06,1.06,0,0,0,3,25.89H2.16v-2H5a.94.94,0,0,0,.94-.94h0A.94.94,0,0,0,5,22H2.25l3.2-7.75H9.84v7.84A2.16,2.16,0,0,0,12,24.25Z"/>
  <path d="M34,0H20L14,2V18l6,2.2H34L40,18V2ZM31.84,2.16V17.72H22.16V2.16ZM16.16,16.49V3.56L20,2.28V17.9Zm21.68,0L34,17.9V2.28l3.84,1.28Z"/>
</svg>
