<svg id="Layer_1" data-name="Layer 1" xmlns="http://www.w3.org/2000/svg" viewBox="0 0 15.99 18.79">
  <defs>
    <style>
      .cls-1 {
        fill: #111;
      }
    </style>
  </defs>
  <title>repeat-icon</title>
  <path class="cls-1" d="M13.85,5.34a.5.5,0,0,0-.73.68,7,7,0,0,1,1.83,5.59c0,.14,0,.27-.06.4s0,.19-.05.29-.06.25-.1.37-.05.2-.08.3-.08.22-.12.33-.08.21-.12.31-.1.2-.15.31-.1.21-.15.3l-.17.28-.19.3-.19.25-.23.3-.2.22-.28.29-.23.2-.29.25-.27.2-.28.19-.31.19-.28.15-.33.16-.3.13-.33.12-.33.1-.31.08-.36.07-.31,0-.36,0-.34,0H7.86l-.38,0-.3,0-.4-.06-.29-.05-.37-.1-.3-.09-.33-.12-.31-.12-.31-.15-.3-.16-.28-.17L4,16.54l-.25-.19-.3-.24-.22-.2-.29-.28-.2-.23-.25-.29-.2-.27-.19-.28-.19-.31L1.76,14l-.16-.33-.12-.3L1.36,13c0-.11-.07-.22-.1-.33s-.05-.21-.08-.31-.05-.24-.07-.36,0-.21,0-.31,0-.24,0-.37,0-.22,0-.33,0-.23,0-.34,0-.25,0-.38,0-.2,0-.31,0-.26.06-.4,0-.19.05-.29.06-.24.1-.37.05-.2.09-.3.08-.22.12-.33.08-.21.12-.31.1-.21.15-.31.1-.2.15-.3l.17-.28c.06-.1.12-.2.19-.3l.19-.25.23-.3L2.88,6l.28-.29a7,7,0,0,1,5-1.93l-2,2a.49.49,0,0,0,0,.7.5.5,0,0,0,.71,0L9.69,3.7a.49.49,0,0,0,0-.65L9.67,3,6.84.15a.49.49,0,0,0-.71,0,.5.5,0,0,0,0,.71l1.95,2A8,8,0,0,0,2.54,5h0L2.47,5l-.32.33-.23.25-.27.34-.22.29c-.08.11-.15.23-.22.34L1,6.89C1,7,.9,7.12.84,7.23s-.12.23-.17.35-.09.23-.14.35-.1.25-.14.38-.06.23-.1.34-.08.28-.11.42,0,.22-.06.33-.05.3-.07.45,0,.07,0,.1,0,.17,0,.25,0,.29,0,.43,0,.26,0,.39,0,.25,0,.38,0,.28,0,.41,0,.24.05.36.05.27.08.41.06.24.09.36.08.25.12.38.08.25.13.37L.69,14l.18.38.17.32.21.36.22.32.23.32.28.33.16.19.07.07.33.32.25.23.34.27.28.22.34.22.32.2.35.18.35.17.35.14.38.14.34.1.42.11.33.06.45.07.1,0h.25l.43,0h.39l.38,0,.41,0,.36-.05.41-.08.36-.09.38-.12.37-.13.34-.14.38-.18.31-.17.36-.21.32-.22.32-.23.33-.28.19-.16.07-.07.32-.33.23-.25.27-.34.22-.29.22-.34c.07-.11.14-.21.2-.32s.12-.23.18-.35.12-.23.17-.35.09-.23.14-.35.1-.25.14-.38.07-.23.1-.34.08-.28.11-.42,0-.22.06-.33.05-.3.07-.45l0-.1s0,0,0,0A8,8,0,0,0,13.85,5.34Z" transform="translate(0 0)"/>
</svg>
