<svg id="settings-icon" xmlns="http://www.w3.org/2000/svg" viewBox="0 0 13.45 13.45">
  <title>settings-icon</title>
  <path d="M9.06,14.08H5.65V12.14l-.57-.19L3.74,13.29,1.43,11,2.77,9.63l-.19-.57H.63V5.65H2.58l.19-.57L1.43,3.74,3.74,1.43,5.08,2.77l.57-.19V.63H9.06V2.58l.57.19L11,1.43l2.31,2.31L11.95,5.08l.19.57h1.95V9.06H12.13l-.19.57L13.29,11,11,13.29,9.63,11.95l-.57.19Zm-2.41-1H8.06V11.42L9.9,10.8,11,11.87l.9-.9L10.8,9.9l.61-1.84h1.67V6.65H11.41L10.8,4.81l1.07-1.07-.9-.9L9.9,3.91,8.06,3.3V1.63H6.65V3.3l-1.84.61L3.74,2.84l-.9.9L3.91,4.81,3.3,6.65H1.63V8.06H3.3L3.91,9.9,2.84,11l.9.9L4.81,10.8l1.84.61Z" transform="translate(-0.63 -0.63)"/>
  <path d="M7.36,9.06a1.7,1.7,0,1,1,1.71-1.7A1.71,1.71,0,0,1,7.36,9.06Zm0-2.41a.7.7,0,1,0,.71.71A.71.71,0,0,0,7.36,6.65Z" transform="translate(-0.63 -0.63)"/>
</svg>
