<svg id="Layer_1" data-name="Layer 1" xmlns="http://www.w3.org/2000/svg" viewBox="0 0 13 15">
  <defs>
    <style>
      .cls-1 {
        fill: #3fa9f5;
      }
    </style>
  </defs>
  <title>trash</title>
  <polygon id="Fill-6" class="cls-1" points="4.33 4.29 5.42 4.29 5.42 11.79 4.33 11.79 4.33 4.29"/>
  <polygon id="Fill-8" class="cls-1" points="7.58 4.29 8.67 4.29 8.67 11.79 7.58 11.79 7.58 4.29"/>
  <path class="cls-1" d="M13,2.14H8.67V1.27A1.29,1.29,0,0,0,7.38,0H5.62A1.29,1.29,0,0,0,4.33,1.27v.87H0V3.21H1.16L2,13.61A1.57,1.57,0,0,0,3.55,15H9.45A1.55,1.55,0,0,0,11,13.61l.84-10.39H13ZM5.15,1.27A.46.46,0,0,1,5.62.81H7.38a.46.46,0,0,1,.47.46v.87H5.15ZM10,13.54a.56.56,0,0,1-.56.51H3.55A.59.59,0,0,1,3,13.54L2.15,3.21h8.69Z"/>
</svg>
