<svg id="Layer_1" data-name="Layer 1" xmlns="http://www.w3.org/2000/svg" viewBox="0 0 16 14.4">
  <defs>
    <style>
      .cls-1 {
        fill: #424242;
      }
    </style>
  </defs>
  <title>up-double</title>
  <path class="cls-1" d="M15.83,8.26a.68.68,0,0,1-1,.1L8,2.28,1.17,8.35a.68.68,0,0,1-1-.1A.8.8,0,0,1,.26,7.19L7.54.71a.68.68,0,0,1,.91,0l7.29,6.48a.79.79,0,0,1,.09,1.07" transform="translate(0 -0.53)"/>
  <path class="cls-1" d="M15.83,14.66a.68.68,0,0,1-1,.1L8,8.68,1.17,14.76a.68.68,0,0,1-1-.1.8.8,0,0,1,.09-1.07L7.54,7.11a.68.68,0,0,1,.91,0l7.29,6.48a.79.79,0,0,1,.09,1.07" transform="translate(0 -0.53)"/>
</svg>
