<?xml version="1.0" encoding="utf-8"?>
<!-- Generator: Adobe Illustrator 21.1.0, SVG Export Plug-In . SVG Version: 6.00 Build 0)  -->
<svg version="1.1" id="Layer_1" xmlns="http://www.w3.org/2000/svg" xmlns:xlink="http://www.w3.org/1999/xlink" x="0px" y="0px"
	 viewBox="0 0 48 47.9" style="enable-background:new 0 0 48 47.9;" xml:space="preserve">
<style type="text/css">
	.st0{fill:#FBB03B;}
</style>
<path class="st0" d="M24,0C10.7,0,0,10.7,0,24s10.7,24,24,24s24-10.7,24-24S37.3,0,24,0z M28.1,37.7c0,1.1-0.9,2-2,2h-4.3
	c-1.1,0-2-0.9-2-2V21c0-1.1,0.9-2,2-2h4.3c1.1,0,2,0.9,2,2V37.7z M28.1,14.8c0,1.1-0.9,2-2,2h-4.3c-1.1,0-2-0.9-2-2v-4.2
	c0-1.1,0.9-2,2-2h4.3c1.1,0,2,0.9,2,2V14.8z"/>
</svg>
